<svg width="250" height="70" viewBox="0 0 250 70" fill="none" xmlns="http://www.w3.org/2000/svg">
<path d="M21.96 51.56C28.2533 45.9067 33 41.1067 36.2 37.16C39.4 33.2133 41 29.9333 41 27.32C41 25.6133 40.4667 24.3067 39.4 23.4C38.3867 22.4933 37 22.04 35.24 22.04C31.9333 22.04 28.4933 23.08 24.92 25.16L21 13.24C23.9333 11.7467 26.8133 10.6267 29.64 9.88C32.52 9.13333 35.5333 8.76 38.68 8.76C42.4133 8.76 45.6667 9.50666 48.44 11C51.2667 12.44 53.4267 14.44 54.92 17C56.4133 19.5067 57.16 22.3867 57.16 25.64C57.16 30.4933 55.5333 35.0267 52.28 39.24C49.0267 43.4 44.12 47.3733 37.56 51.16H56.84V62.84H21.96V51.56Z" fill="#2932C1"/>
<path d="M79.2863 63.88C74.3796 63.88 69.3129 62.7333 64.0863 60.44L65.1263 49.16C67.2596 49.96 69.4196 50.5733 71.6063 51C73.7929 51.4267 75.7396 51.64 77.4463 51.64C79.9529 51.64 81.8729 51.0533 83.2062 49.88C84.5396 48.7067 85.2063 47.1333 85.2063 45.16C85.2063 43.4 84.7263 41.9867 83.7663 40.92C82.8063 39.8 81.5529 39.24 80.0063 39.24C77.8196 39.24 75.1796 40.3067 72.0863 42.44L63.7663 38.84L65.8462 9.32H96.7262L95.5263 20.76H76.6463L75.6063 29.64C77.0463 28.7333 78.4596 28.0933 79.8463 27.72C81.2329 27.3467 82.8329 27.16 84.6463 27.16C87.7396 27.16 90.5129 27.9333 92.9663 29.48C95.4729 31.0267 97.4196 33.1867 98.8063 35.96C100.246 38.68 100.966 41.7467 100.966 45.16C100.966 48.7333 100.033 51.96 98.1663 54.84C96.2996 57.6667 93.7129 59.88 90.4062 61.48C87.1529 63.08 83.4463 63.88 79.2863 63.88Z" fill="#2932C1"/>
<path d="M119.539 38.2C116.552 38.2 113.965 37.5067 111.779 36.12C109.592 34.68 107.912 32.7867 106.739 30.44C105.619 28.04 105.059 25.4267 105.059 22.6C105.059 19.56 105.672 16.8667 106.899 14.52C108.179 12.12 109.939 10.28 112.179 9C114.419 7.66667 116.952 7 119.779 7C122.819 7 125.405 7.74667 127.539 9.24C129.725 10.7333 131.379 12.68 132.499 15.08C133.619 17.48 134.179 19.9867 134.179 22.6C134.179 25.64 133.565 28.36 132.339 30.76C131.112 33.1067 129.379 34.9467 127.139 36.28C124.899 37.56 122.365 38.2 119.539 38.2ZM152.499 7.8H163.699L124.499 62.84H113.299L152.499 7.8ZM119.539 30.36C121.139 30.36 122.312 29.5867 123.059 28.04C123.859 26.44 124.259 24.6267 124.259 22.6C124.259 20.52 123.832 18.7333 122.979 17.24C122.125 15.7467 120.979 15 119.539 15C117.992 15 116.845 15.7467 116.099 17.24C115.352 18.7333 114.979 20.52 114.979 22.6C114.979 24.7333 115.379 26.5733 116.179 28.12C117.032 29.6133 118.152 30.36 119.539 30.36ZM157.459 63.64C154.472 63.64 151.885 62.9733 149.699 61.64C147.512 60.2533 145.832 58.3867 144.659 56.04C143.485 53.64 142.899 50.9467 142.899 47.96C142.899 44.9733 143.512 42.3067 144.739 39.96C146.019 37.56 147.752 35.6933 149.939 34.36C152.179 32.9733 154.685 32.28 157.459 32.28C160.339 32.28 162.872 33.0533 165.059 34.6C167.299 36.0933 169.005 38.0933 170.179 40.6C171.352 43.0533 171.939 45.6667 171.939 48.44C171.939 51.4267 171.325 54.0933 170.099 56.44C168.872 58.7333 167.165 60.52 164.979 61.8C162.792 63.0267 160.285 63.64 157.459 63.64ZM157.459 55.64C158.952 55.64 160.072 54.8667 160.819 53.32C161.619 51.72 162.019 49.9333 162.019 47.96C162.019 45.88 161.592 44.12 160.739 42.68C159.939 41.1867 158.845 40.44 157.459 40.44C155.965 40.44 154.819 41.1867 154.019 42.68C153.219 44.12 152.819 45.88 152.819 47.96C152.819 50.0933 153.219 51.9067 154.019 53.4C154.872 54.8933 156.019 55.64 157.459 55.64Z" fill="#2932C1"/>
<path d="M181.92 52.96H185.94V55C186.393 54.2133 186.907 53.6333 187.48 53.26C188.067 52.8733 188.76 52.68 189.56 52.68C190.347 52.68 191.027 52.88 191.6 53.28C192.187 53.6667 192.627 54.1933 192.92 54.86C193.773 53.4067 195.013 52.68 196.64 52.68C197.413 52.68 198.087 52.8867 198.66 53.3C199.247 53.7133 199.7 54.3133 200.02 55.1C200.34 55.8733 200.5 56.7867 200.5 57.84V62.84H196.28V57.84C196.28 57.16 196.16 56.6467 195.92 56.3C195.693 55.9533 195.373 55.78 194.96 55.78C194.507 55.78 194.113 55.9733 193.78 56.36C193.46 56.7467 193.3 57.2133 193.3 57.76V62.84H189.12V57.84C189.12 57.16 189 56.6467 188.76 56.3C188.533 55.9533 188.207 55.78 187.78 55.78C187.327 55.78 186.94 55.9733 186.62 56.36C186.3 56.7467 186.14 57.2133 186.14 57.76V62.84H181.92V52.96Z" fill="#2932C1"/>
<path d="M206.967 49.08H210.847L205.527 62.84H201.647L206.967 49.08Z" fill="#2932C1"/>
<path d="M210.865 52.96H214.885V55C215.339 54.2133 215.852 53.6333 216.425 53.26C217.012 52.8733 217.705 52.68 218.505 52.68C219.292 52.68 219.972 52.88 220.545 53.28C221.132 53.6667 221.572 54.1933 221.865 54.86C222.719 53.4067 223.959 52.68 225.585 52.68C226.359 52.68 227.032 52.8867 227.605 53.3C228.192 53.7133 228.645 54.3133 228.965 55.1C229.285 55.8733 229.445 56.7867 229.445 57.84V62.84H225.225V57.84C225.225 57.16 225.105 56.6467 224.865 56.3C224.639 55.9533 224.319 55.78 223.905 55.78C223.452 55.78 223.059 55.9733 222.725 56.36C222.405 56.7467 222.245 57.2133 222.245 57.76V62.84H218.065V57.84C218.065 57.16 217.945 56.6467 217.705 56.3C217.479 55.9533 217.152 55.78 216.725 55.78C216.272 55.78 215.885 55.9733 215.565 56.36C215.245 56.7467 215.085 57.2133 215.085 57.76V62.84H210.865V52.96Z" fill="#2932C1"/>
</svg>
