<svg width="44" height="44" viewBox="0 0 44 44" fill="none" xmlns="http://www.w3.org/2000/svg">
<path d="M12.5591 31.4409C12.9172 31.7989 13.4028 32 13.9092 32C14.4155 32 14.9011 31.7989 15.2592 31.4409L22.0115 24.6886L28.7638 31.4409C29.124 31.7887 29.6063 31.9812 30.107 31.9769C30.6077 31.9725 31.0866 31.7717 31.4407 31.4176C31.7947 31.0636 31.9956 30.5846 31.9999 30.084C32.0043 29.5833 31.8118 29.1009 31.464 28.7408L24.7117 21.9885L31.464 15.2362C31.8118 14.876 32.0043 14.3937 31.9999 13.893C31.9956 13.3923 31.7947 12.9134 31.4407 12.5593C31.0866 12.2053 30.6077 12.0044 30.107 12.0001C29.6063 11.9957 29.124 12.1882 28.7638 12.536L22.0115 19.2883L15.2592 12.536C14.8991 12.1882 14.4167 11.9957 13.916 12.0001C13.4154 12.0044 12.9364 12.2053 12.5824 12.5593C12.2283 12.9134 12.0275 13.3923 12.0231 13.893C12.0188 14.3937 12.2113 14.876 12.5591 15.2362L19.3114 21.9885L12.5591 28.7408C12.2011 29.0989 12 29.5845 12 30.0908C12 30.5972 12.2011 31.0828 12.5591 31.4409V31.4409Z" fill="#2932C1"/>
</svg>
