<svg width="20" height="26" viewBox="0 0 20 26" fill="none" xmlns="http://www.w3.org/2000/svg">
<path d="M2.56818 20.2398C1.07299 18.78 0.167472 16.8557 0.0140221 14.8119C-0.179789 11.604 1.69128 9.35524 2.18379 8.76329C2.27031 8.66087 2.7383 8.20973 3.67461 7.30849C5.09891 5.9369 6.54637 4.58709 7.97599 3.22011C8.28774 2.92209 8.5883 2.61253 8.96101 2.24051C8.56487 1.84417 8.21558 1.53053 7.91022 1.18078C7.36313 0.552213 7.54687 0.0442428 8.40464 0.0304169C11.1814 -0.0141334 13.9602 -0.0131077 16.7359 0.056022C17.0178 0.062935 17.5132 0.639015 17.5215 0.959828C17.5872 3.52607 17.5697 6.09437 17.5444 8.6619C17.5418 8.93099 17.3466 9.40798 17.2015 9.42207C16.8558 9.43852 16.5167 9.32691 16.254 9.11021C15.9311 8.77503 15.6437 8.40984 15.396 8.02001L2.56818 20.2398Z" fill="#2932C1"/>
<path d="M16.8817 9.64993C17.8865 10.131 18.7024 10.9119 19.2075 11.8759C20.2244 13.7939 20.1658 15.7134 19.1898 17.6267C18.4504 19.0004 17.5007 20.2595 16.3724 21.3618C14.6426 23.0781 12.6933 24.5764 10.5713 25.8209C10.3978 25.9382 10.1906 26.0008 9.97851 26C9.76637 25.9992 9.55973 25.935 9.38718 25.8163C7.60944 24.7453 5.94044 23.5159 4.40216 22.1442C4.20303 21.9609 4.19958 21.9046 4.39046 21.721C8.51233 17.7569 12.6339 13.7921 16.7552 9.8266C16.8034 9.77193 16.8458 9.71274 16.8817 9.64993V9.64993Z" fill="#2932C1"/>
</svg>
