<svg width="130" height="26" viewBox="0 0 130 26" fill="none" xmlns="http://www.w3.org/2000/svg">
<path d="M2.56818 20.2398C1.07299 18.78 0.167472 16.8557 0.0140221 14.8119C-0.179789 11.604 1.69128 9.35524 2.18379 8.76329C2.27031 8.66087 2.7383 8.20973 3.67461 7.30849C5.09891 5.9369 6.54637 4.58709 7.97599 3.22011C8.28774 2.92209 8.5883 2.61253 8.96101 2.24051C8.56487 1.84417 8.21558 1.53053 7.91022 1.18078C7.36313 0.552213 7.54687 0.0442428 8.40464 0.0304169C11.1814 -0.0141334 13.9602 -0.0131077 16.7359 0.056022C17.0178 0.062935 17.5132 0.639015 17.5215 0.959828C17.5872 3.52607 17.5697 6.09437 17.5444 8.6619C17.5417 8.93099 17.3466 9.40798 17.2015 9.42207C16.8558 9.43852 16.5167 9.32691 16.254 9.11021C15.9311 8.77503 15.6437 8.40984 15.396 8.02001L2.56818 20.2398Z" fill="#2932C1"/>
<path d="M16.8827 9.6499C17.8874 10.131 18.7033 10.9119 19.2084 11.8759C20.2254 13.7938 20.1668 15.7133 19.1908 17.6267C18.4514 19.0004 17.5017 20.2594 16.3734 21.3618C14.6436 23.0781 12.6943 24.5764 10.5723 25.8209C10.3988 25.9382 10.1916 26.0008 9.97949 26C9.76735 25.9991 9.5607 25.9349 9.38815 25.8163C7.61042 24.7453 5.94142 23.5158 4.40314 22.1442C4.204 21.9609 4.20056 21.9045 4.39144 21.721C8.5133 17.7568 12.6349 13.7921 16.7562 9.82657C16.8044 9.7719 16.8468 9.71271 16.8827 9.6499Z" fill="#2932C1"/>
<path d="M26.8047 7.39248H32.5129V14.0778H37.9167V7.39248H43.6503V24.1789H37.9167V17.5912H32.5129V24.1789H26.8047V7.39248Z" fill="#2932C1"/>
<path d="M52.0493 24.3741C50.9499 24.3741 49.9182 24.0976 48.9542 23.5446C48.007 22.9753 47.2459 22.2108 46.6709 21.2511C46.0958 20.2751 45.8083 19.1934 45.8083 18.006C45.8083 16.8349 46.0958 15.7776 46.6709 14.8342C47.2459 13.8745 48.0155 13.1262 48.9795 12.5895C49.9436 12.0527 50.9668 11.7843 52.0493 11.7843C52.9288 11.7843 53.7406 12.0201 54.4848 12.4919C55.2459 12.9636 55.8209 13.6711 56.2099 14.6146V11.7843H61.5376V24.1789H56.2099V21.9098C55.3643 23.5527 53.9774 24.3741 52.0493 24.3741ZM53.6983 20.5191C54.3749 20.5191 54.9499 20.2914 55.4235 19.8359C55.914 19.3642 56.1761 18.8112 56.2099 18.1768V17.9816C56.1761 17.331 55.9055 16.7779 55.3981 16.3225C54.9076 15.867 54.341 15.6393 53.6983 15.6393C52.988 15.6393 52.3791 15.8833 51.8717 16.3713C51.3812 16.843 51.136 17.4123 51.136 18.0792C51.136 18.7624 51.3897 19.3398 51.8971 19.8115C52.4045 20.2832 53.0049 20.5191 53.6983 20.5191Z" fill="#2932C1"/>
<path d="M73.6717 24.3741C71.7267 24.3741 70.3483 23.5527 69.5365 21.9098V24.1789H64.158V8.10005L69.5365 7.34368V14.2486C69.9593 13.3865 70.509 12.7602 71.1855 12.3699C71.862 11.9795 72.6823 11.7843 73.6464 11.7843C74.7796 11.7843 75.8197 12.0608 76.7669 12.6139C77.7309 13.1506 78.4836 13.8989 79.0248 14.8586C79.5829 15.8182 79.862 16.8918 79.862 18.0792C79.862 19.2504 79.5745 20.3158 78.9994 21.2755C78.4413 22.2352 77.6802 22.9915 76.7161 23.5446C75.769 24.0976 74.7542 24.3741 73.6717 24.3741ZM72.0481 20.5191C72.7415 20.5191 73.3335 20.2751 73.824 19.7871C74.3144 19.2992 74.5597 18.7299 74.5597 18.0792C74.5597 17.396 74.306 16.8186 73.7986 16.3469C73.3081 15.8752 72.7246 15.6393 72.0481 15.6393C71.3546 15.6393 70.7627 15.8752 70.2722 16.3469C69.7817 16.8023 69.5365 17.3472 69.5365 17.9816V18.0792C69.5365 18.7624 69.7817 19.3398 70.2722 19.8115C70.7796 20.2832 71.3715 20.5191 72.0481 20.5191Z" fill="#2932C1"/>
<path d="M86.2619 24.3741C84.8412 24.3741 83.7334 23.935 82.9385 23.0566C82.1436 22.1782 81.7461 20.9827 81.7461 19.47V11.9551H87.1245V19.2504C87.1245 19.6245 87.226 19.9173 87.429 20.1287C87.6488 20.3239 87.9279 20.4215 88.2662 20.4215C88.6044 20.4215 88.9511 20.3239 89.3063 20.1287L89.5854 23.5202C89.2133 23.7967 88.7228 24.0082 88.1139 24.1545C87.522 24.3009 86.9046 24.3741 86.2619 24.3741ZM84.4353 10.1252C83.6404 10.1252 82.9639 9.88931 82.4057 9.41759C81.8645 8.92961 81.5939 8.33591 81.5939 7.63647C81.5939 6.93704 81.8814 6.35146 82.4565 5.87975C83.0315 5.40804 83.6911 5.17218 84.4353 5.17218C85.2133 5.17218 85.8814 5.41617 86.4395 5.90415C87.0146 6.39213 87.3021 6.96957 87.3021 7.63647C87.3021 8.35217 87.0146 8.94588 86.4395 9.41759C85.8645 9.88931 85.1964 10.1252 84.4353 10.1252Z" fill="#2932C1"/>
<path d="M96.3463 24.3741C94.8579 24.3741 93.6993 23.9675 92.8706 23.1542C92.0418 22.3246 91.6275 21.186 91.6275 19.7383V14.9805H90.0038V11.9551H92.008L94.3674 7.34368H96.9298V11.9551H99.8727V14.9805H96.9298V19.1284C96.9298 19.535 97.0651 19.8522 97.3357 20.0799C97.6063 20.3076 97.9868 20.4215 98.4773 20.4215C98.934 20.4215 99.3484 20.3239 99.7205 20.1287L99.9234 23.5446C99.5006 23.7886 98.9509 23.9919 98.2744 24.1545C97.6147 24.3009 96.9721 24.3741 96.3463 24.3741Z" fill="#2932C1"/>
<path d="M108.564 24.3741C107.227 24.3741 106.035 24.1464 104.986 23.691C103.955 23.2355 103.151 22.593 102.576 21.7635C102.001 20.9339 101.714 19.9905 101.714 18.9332V11.9551H106.94V18.86C106.94 19.3968 107.092 19.8197 107.397 20.1287C107.718 20.4215 108.115 20.5679 108.589 20.5679C109.046 20.5679 109.418 20.4215 109.705 20.1287C110.01 19.8197 110.162 19.3968 110.162 18.86V11.9551H115.287V18.9332C115.287 20.0067 114.999 20.9583 114.424 21.7878C113.866 22.6011 113.079 23.2355 112.065 23.691C111.05 24.1464 109.883 24.3741 108.564 24.3741Z" fill="#2932C1"/>
<path d="M124.317 24.3741C122.913 24.3741 121.661 24.1057 120.562 23.569C119.479 23.0159 118.634 22.2677 118.025 21.3243C117.416 20.3646 117.111 19.2829 117.111 18.0792C117.111 16.843 117.424 15.745 118.05 14.7854C118.676 13.8257 119.522 13.0856 120.587 12.5651C121.653 12.0445 122.837 11.7843 124.139 11.7843C125.391 11.7843 126.456 12.0527 127.336 12.5895C128.232 13.11 128.9 13.8257 129.34 14.7366C129.78 15.6312 129.999 16.6397 129.999 17.762C129.999 18.0548 129.982 18.2663 129.949 18.3964L122.338 19.348C122.541 19.9173 122.87 20.332 123.327 20.5923C123.784 20.8363 124.384 20.9583 125.128 20.9583C126.278 20.9583 127.522 20.6736 128.858 20.1043L129.492 23.3738C127.919 24.0407 126.194 24.3741 124.317 24.3741ZM126.067 16.2737C125.796 15.2489 125.154 14.7366 124.139 14.7366C123.53 14.7366 123.048 14.9562 122.693 15.3953C122.338 15.8345 122.152 16.4038 122.135 17.1033L126.067 16.2737ZM119.42 7.51448L126.854 2.5127L129.416 6.8801L120.968 10.1252L119.42 7.51448Z" fill="#2932C1"/>
</svg>
