<svg width="126" height="27" viewBox="0 0 126 27" fill="none" xmlns="http://www.w3.org/2000/svg">
<path d="M2.48074 20.4178C1.03646 18.9516 0.161771 17.0188 0.0135447 14.966C-0.173668 11.744 1.6337 9.48539 2.10944 8.89084C2.19302 8.78797 2.64507 8.33486 3.5495 7.42965C4.92531 6.05204 6.32349 4.69629 7.70445 3.32331C8.00558 3.02398 8.2959 2.71306 8.65593 2.33941C8.27327 1.94132 7.93587 1.6263 7.64091 1.27502C7.11244 0.643689 7.28993 0.133487 8.1185 0.119601C10.8007 0.0748548 13.4849 0.075885 16.1661 0.145318C16.4384 0.152262 16.917 0.730873 16.9249 1.0531C16.9885 3.63062 16.9715 6.2102 16.9471 8.789C16.9445 9.05928 16.756 9.53837 16.6159 9.55251C16.2819 9.56904 15.9544 9.45694 15.7006 9.23929C15.3887 8.90264 15.1111 8.53584 14.8718 8.1443L2.48074 20.4178Z" fill="white"/>
<path d="M16.3081 9.78137C17.2786 10.2646 18.0667 11.0489 18.5546 12.0171C19.537 13.9435 19.4804 15.8715 18.5376 17.7932C17.8234 19.1729 16.906 20.4375 15.8161 21.5447C14.1452 23.2686 12.2623 24.7735 10.2125 26.0234C10.0449 26.1412 9.84481 26.2041 9.6399 26.2033C9.43498 26.2024 9.23537 26.138 9.06869 26.0188C7.35148 24.9431 5.7393 23.7082 4.2534 22.3306C4.06104 22.1464 4.05771 22.0899 4.2421 21.9055C8.22363 17.9239 12.2049 13.9417 16.1859 9.95881C16.2324 9.9039 16.2734 9.84446 16.3081 9.78137Z" fill="white"/>
<path d="M25.8927 7.51402H31.4066V14.2287H36.6264V7.51402H42.1648V24.3742H36.6264V17.7576H31.4066V24.3742H25.8927V7.51402Z" fill="white"/>
<path d="M50.2778 24.5703C49.2159 24.5703 48.2193 24.2925 47.2881 23.7371C46.3732 23.1653 45.638 22.3974 45.0825 21.4335C44.5271 20.4533 44.2493 19.3668 44.2493 18.1742C44.2493 16.9979 44.5271 15.936 45.0825 14.9884C45.638 14.0245 46.3814 13.273 47.3126 12.7338C48.2438 12.1947 49.2322 11.9251 50.2778 11.9251C51.1274 11.9251 51.9116 12.162 52.6304 12.6358C53.3656 13.1096 53.9211 13.8203 54.2968 14.7678V11.9251H59.4431V24.3742H54.2968V22.0952C53.48 23.7452 52.1403 24.5703 50.2778 24.5703ZM51.8707 20.6983C52.5242 20.6983 53.0797 20.4696 53.5371 20.0121C54.0109 19.5384 54.2642 18.9829 54.2968 18.3457V18.1497C54.2642 17.4962 54.0028 16.9407 53.5126 16.4833C53.0389 16.0258 52.4916 15.7971 51.8707 15.7971C51.1846 15.7971 50.5964 16.0422 50.1063 16.5323C49.6325 17.0061 49.3956 17.5779 49.3956 18.2477C49.3956 18.9339 49.6407 19.5139 50.1308 19.9876C50.6209 20.4614 51.2009 20.6983 51.8707 20.6983Z" fill="white"/>
<path d="M71.1641 24.5703C69.2853 24.5703 67.9538 23.7452 67.1696 22.0952V24.3742H61.9743V8.2247L67.1696 7.46501V14.4002C67.5781 13.5344 68.109 12.9054 68.7625 12.5133C69.416 12.1212 70.2084 11.9251 71.1396 11.9251C72.2342 11.9251 73.239 12.2029 74.1539 12.7583C75.0851 13.2975 75.8121 14.049 76.3349 15.0129C76.8741 15.9768 77.1436 17.0551 77.1436 18.2477C77.1436 19.424 76.8659 20.4941 76.3104 21.458C75.7713 22.4219 75.0361 23.1816 74.1049 23.7371C73.19 24.2925 72.2097 24.5703 71.1641 24.5703ZM69.5957 20.6983C70.2656 20.6983 70.8374 20.4533 71.3112 19.9631C71.785 19.473 72.0219 18.9012 72.0219 18.2477C72.0219 17.5615 71.7768 16.9816 71.2867 16.5078C70.8129 16.034 70.2492 15.7971 69.5957 15.7971C68.9259 15.7971 68.3541 16.034 67.8803 16.5078C67.4065 16.9652 67.1696 17.5125 67.1696 18.1497V18.2477C67.1696 18.9339 67.4065 19.5139 67.8803 19.9876C68.3704 20.4614 68.9422 20.6983 69.5957 20.6983Z" fill="white"/>
<path d="M83.3257 24.5703C81.9533 24.5703 80.8832 24.1292 80.1154 23.247C79.3475 22.3647 78.9636 21.1639 78.9636 19.6446V12.0967H84.1589V19.424C84.1589 19.7998 84.2569 20.0938 84.453 20.3062C84.6654 20.5023 84.9349 20.6003 85.2617 20.6003C85.5884 20.6003 85.9233 20.5023 86.2664 20.3062L86.536 23.7126C86.1766 23.9903 85.7028 24.2027 85.1146 24.3497C84.5428 24.4968 83.9465 24.5703 83.3257 24.5703ZM81.5612 10.2587C80.7934 10.2587 80.1399 10.0218 79.6008 9.54803C79.078 9.05791 78.8166 8.46159 78.8166 7.75908C78.8166 7.05657 79.0943 6.46843 79.6498 5.99464C80.2052 5.52085 80.8424 5.28396 81.5612 5.28396C82.3128 5.28396 82.9581 5.52902 83.4972 6.01915C84.0527 6.50927 84.3304 7.08925 84.3304 7.75908C84.3304 8.47793 84.0527 9.07424 83.4972 9.54803C82.9418 10.0218 82.2964 10.2587 81.5612 10.2587Z" fill="white"/>
<path d="M93.0667 24.5703C91.629 24.5703 90.5099 24.1618 89.7093 23.345C88.9088 22.5118 88.5085 21.3682 88.5085 19.9141V15.1354H86.9402V12.0967H88.8761L91.1552 7.46501H93.6303V12.0967H96.473V15.1354H93.6303V19.3015C93.6303 19.7099 93.761 20.0285 94.0224 20.2572C94.2838 20.4859 94.6514 20.6003 95.1252 20.6003C95.5663 20.6003 95.9666 20.5023 96.326 20.3062L96.522 23.7371C96.1136 23.9821 95.5826 24.1864 94.9291 24.3497C94.292 24.4968 93.6712 24.5703 93.0667 24.5703Z" fill="white"/>
<path d="M104.868 24.5703C103.577 24.5703 102.426 24.3416 101.413 23.8841C100.416 23.4267 99.6401 22.7813 99.0847 21.9481C98.5292 21.1149 98.2515 20.1674 98.2515 19.1054V12.0967H103.3V19.0319C103.3 19.571 103.447 19.9958 103.741 20.3062C104.051 20.6003 104.435 20.7473 104.893 20.7473C105.334 20.7473 105.693 20.6003 105.971 20.3062C106.265 19.9958 106.412 19.571 106.412 19.0319V12.0967H111.362V19.1054C111.362 20.1837 111.085 21.1394 110.529 21.9726C109.99 22.7895 109.23 23.4267 108.25 23.8841C107.27 24.3416 106.142 24.5703 104.868 24.5703Z" fill="white"/>
<path d="M120.085 24.5703C118.729 24.5703 117.52 24.3007 116.458 23.7616C115.412 23.2061 114.595 22.4546 114.007 21.507C113.419 20.5431 113.125 19.4567 113.125 18.2477C113.125 17.0061 113.427 15.9033 114.032 14.9394C114.636 13.9755 115.453 13.2321 116.482 12.7093C117.512 12.1865 118.655 11.9251 119.913 11.9251C121.122 11.9251 122.151 12.1947 123.001 12.7338C123.867 13.2566 124.512 13.9755 124.937 14.8904C125.362 15.7889 125.574 16.8018 125.574 17.9291C125.574 18.2232 125.558 18.4356 125.525 18.5663L118.173 19.522C118.369 20.0938 118.688 20.5104 119.129 20.7718C119.57 21.0169 120.15 21.1394 120.869 21.1394C121.98 21.1394 123.181 20.8535 124.471 20.2817L125.084 23.5655C123.565 24.2354 121.898 24.5703 120.085 24.5703ZM121.776 16.4342C121.514 15.405 120.893 14.8904 119.913 14.8904C119.325 14.8904 118.859 15.1109 118.516 15.552C118.173 15.9931 117.994 16.5649 117.977 17.2675L121.776 16.4342ZM115.355 7.63655L122.535 2.61279L125.01 6.99939L116.85 10.2587L115.355 7.63655Z" fill="white"/>
</svg>
