<svg width="250" height="70" viewBox="0 0 250 70" fill="none" xmlns="http://www.w3.org/2000/svg">
<path d="M42.52 47.8H29V35.4H42.52V21.56H55.48V35.4H69V47.8H55.48V61.64H42.52V47.8Z" fill="#2932C1"/>
<path d="M73.9775 50.36C80.2708 44.7067 85.0175 39.9067 88.2175 35.96C91.4175 32.0133 93.0175 28.7333 93.0175 26.12C93.0175 24.4133 92.4842 23.1067 91.4175 22.2C90.4042 21.2933 89.0175 20.84 87.2575 20.84C83.9508 20.84 80.5108 21.88 76.9375 23.96L73.0175 12.04C75.9508 10.5467 78.8308 9.42667 81.6575 8.68C84.5375 7.93333 87.5508 7.56 90.6975 7.56C94.4308 7.56 97.6842 8.30667 100.458 9.8C103.284 11.24 105.444 13.24 106.938 15.8C108.431 18.3067 109.177 21.1867 109.177 24.44C109.177 29.2933 107.551 33.8267 104.298 38.04C101.044 42.2 96.1375 46.1733 89.5775 49.96H108.858V61.64H73.9775V50.36Z" fill="#2932C1"/>
<path d="M140.104 62.28C135.304 62.28 130.984 61.1067 127.144 58.76C123.357 56.36 120.37 53.08 118.184 48.92C116.05 44.7067 114.984 39.9333 114.984 34.6C114.984 29.32 116.05 24.6 118.184 20.44C120.37 16.2267 123.357 12.9467 127.144 10.6C130.984 8.2 135.304 7 140.104 7C144.85 7 149.117 8.2 152.904 10.6C156.744 12.9467 159.73 16.2267 161.864 20.44C164.05 24.6533 165.144 29.3733 165.144 34.6C165.144 39.88 164.077 44.6267 161.944 48.84C159.81 53.0533 156.824 56.36 152.984 58.76C149.197 61.1067 144.904 62.28 140.104 62.28ZM140.104 49C141.704 49 143.144 48.3867 144.424 47.16C145.757 45.88 146.797 44.1467 147.544 41.96C148.29 39.7733 148.664 37.32 148.664 34.6C148.664 30.3867 147.864 26.9467 146.264 24.28C144.664 21.6133 142.61 20.28 140.104 20.28C137.49 20.28 135.384 21.6133 133.784 24.28C132.237 26.8933 131.464 30.3333 131.464 34.6C131.464 38.8133 132.264 42.28 133.864 45C135.517 47.6667 137.597 49 140.104 49Z" fill="#2932C1"/>
<path d="M195.572 62.28C190.772 62.28 186.453 61.1067 182.613 58.76C178.826 56.36 175.839 53.08 173.652 48.92C171.519 44.7067 170.452 39.9333 170.452 34.6C170.452 29.32 171.519 24.6 173.652 20.44C175.839 16.2267 178.826 12.9467 182.613 10.6C186.453 8.2 190.772 7 195.572 7C200.319 7 204.586 8.2 208.372 10.6C212.212 12.9467 215.199 16.2267 217.333 20.44C219.519 24.6533 220.613 29.3733 220.613 34.6C220.613 39.88 219.546 44.6267 217.413 48.84C215.279 53.0533 212.293 56.36 208.452 58.76C204.666 61.1067 200.372 62.28 195.572 62.28ZM195.572 49C197.172 49 198.613 48.3867 199.893 47.16C201.226 45.88 202.266 44.1467 203.012 41.96C203.759 39.7733 204.133 37.32 204.133 34.6C204.133 30.3867 203.332 26.9467 201.732 24.28C200.132 21.6133 198.079 20.28 195.572 20.28C192.959 20.28 190.853 21.6133 189.253 24.28C187.706 26.8933 186.932 30.3333 186.932 34.6C186.932 38.8133 187.733 42.28 189.333 45C190.986 47.6667 193.066 49 195.572 49Z" fill="#2932C1"/>
</svg>
