<svg width="250" height="70" viewBox="0 0 250 70" fill="none" xmlns="http://www.w3.org/2000/svg">
<path d="M94.28 63.8C87.9333 63.5333 82.2533 62.2267 77.24 59.88L80.52 48.84C82.6533 49.96 84.9467 50.8133 87.4 51.4C89.9067 51.9867 92.2 52.36 94.28 52.52V41.32L93.08 41C87.9067 39.56 83.9333 37.4 81.16 34.52C78.3867 31.5867 77 28.1467 77 24.2C77 19.8267 78.52 16.2533 81.56 13.48C84.6533 10.7067 88.8933 9.08 94.28 8.6V1H101.08V8.6C106.2 9.02667 111.133 10.3333 115.88 12.52L111.72 23.24C109.053 21.48 105.507 20.36 101.08 19.88V30.6L102.04 30.84C107.053 32.12 110.92 34.2 113.64 37.08C116.413 39.9067 117.8 43.2933 117.8 47.24C117.8 51.88 116.333 55.6133 113.4 58.44C110.52 61.2667 106.413 63 101.08 63.64V69.64H94.28V63.8ZM94.28 19.88C91.5067 20.4667 90.12 21.88 90.12 24.12C90.12 25.1333 90.4133 25.9867 91 26.68C91.5867 27.32 92.68 27.96 94.28 28.6V19.88ZM101.08 52.04C103.587 51.4 104.84 50.12 104.84 48.2C104.84 47.08 104.573 46.1733 104.04 45.48C103.56 44.7867 102.573 44.1467 101.08 43.56V52.04Z" fill="#2932C1"/>
<path d="M147.966 63.48C143.166 63.48 138.846 62.3067 135.006 59.96C131.22 57.56 128.233 54.28 126.046 50.12C123.913 45.9067 122.846 41.1333 122.846 35.8C122.846 30.52 123.913 25.8 126.046 21.64C128.233 17.4267 131.22 14.1467 135.006 11.8C138.846 9.4 143.166 8.2 147.966 8.2C152.713 8.2 156.98 9.4 160.766 11.8C164.606 14.1467 167.593 17.4267 169.726 21.64C171.913 25.8533 173.006 30.5733 173.006 35.8C173.006 41.08 171.94 45.8267 169.806 50.04C167.673 54.2533 164.686 57.56 160.846 59.96C157.06 62.3067 152.766 63.48 147.966 63.48ZM147.966 50.2C149.566 50.2 151.006 49.5867 152.286 48.36C153.62 47.08 154.66 45.3467 155.406 43.16C156.153 40.9733 156.526 38.52 156.526 35.8C156.526 31.5867 155.726 28.1467 154.126 25.48C152.526 22.8133 150.473 21.48 147.966 21.48C145.353 21.48 143.246 22.8133 141.646 25.48C140.1 28.0933 139.326 31.5333 139.326 35.8C139.326 40.0133 140.126 43.48 141.726 46.2C143.38 48.8667 145.46 50.2 147.966 50.2Z" fill="#2932C1"/>
</svg>
