<svg width="40" height="40" viewBox="0 0 40 40" fill="none" xmlns="http://www.w3.org/2000/svg">
<g clip-path="url(#clip0_498_2881)">
<mask id="mask0_498_2881" style="mask-type:alpha" maskUnits="userSpaceOnUse" x="0" y="0" width="40" height="40">
<path d="M0 0H40V40H0V0Z" fill="white"/>
</mask>
<g mask="url(#mask0_498_2881)">
<path d="M39.1667 10.845C38.9402 10.0371 38.499 9.30562 37.8901 8.72838C37.2639 8.13338 36.4964 7.70777 35.6601 7.49171C32.5301 6.66671 19.9901 6.66671 19.9901 6.66671C14.7623 6.60723 9.53577 6.86884 4.34005 7.45005C3.5037 7.68207 2.73766 8.11719 2.11005 8.71671C1.49339 9.31005 1.04672 10.0417 0.813385 10.8434C0.252874 13.863 -0.0194612 16.929 5.20763e-05 20C-0.0199479 23.0684 0.251719 26.1334 0.813385 29.1567C1.04172 29.955 1.48672 30.6834 2.10505 31.2717C2.72339 31.86 3.49339 32.285 4.34005 32.51C7.51172 33.3334 19.9901 33.3334 19.9901 33.3334C25.2245 33.3929 30.4577 33.1313 35.6601 32.55C36.4964 32.334 37.2639 31.9084 37.8901 31.3134C38.4988 30.7363 38.9395 30.0047 39.1651 29.1967C39.7402 26.1783 40.0199 23.111 40.0001 20.0384C40.0433 16.9527 39.764 13.871 39.1667 10.8434V10.845ZM16.0034 25.7067V14.295L26.4367 20.0017L16.0034 25.7067Z" fill="white"/>
</g>
</g>
<defs>
<clipPath id="clip0_498_2881">
<rect width="40" height="40" fill="white"/>
</clipPath>
</defs>
</svg>
